<?xml version="1.0" encoding="UTF-8"?>
<svg xmlns="http://www.w3.org/2000/svg" xmlns:xlink="http://www.w3.org/1999/xlink" width="65px" height="65px" viewBox="0 0 65 65" version="1.1">
<g id="surface1">
<path style=" stroke:none;fill-rule:nonzero;fill:rgb(0%,0%,0%);fill-opacity:1;" d="M 46.039062 16.414062 C 42.171875 16.417969 38.835938 19.152344 38.078125 22.949219 C 37.320312 26.746094 39.351562 30.550781 42.929688 32.039062 C 42.082031 34.058594 40.105469 35.375 37.914062 35.371094 L 27.085938 35.371094 C 25.171875 35.378906 23.300781 35.902344 21.664062 36.890625 L 21.664062 21.34375 C 25.398438 20.023438 27.636719 16.207031 26.964844 12.308594 C 26.296875 8.40625 22.917969 5.558594 18.960938 5.558594 C 15.003906 5.558594 11.617188 8.40625 10.949219 12.308594 C 10.28125 16.207031 12.519531 20.023438 16.25 21.34375 L 16.25 43.984375 C 12.566406 45.308594 10.351562 49.070312 10.980469 52.933594 C 11.605469 56.796875 14.902344 59.660156 18.8125 59.75 C 22.722656 59.84375 26.144531 57.132812 26.949219 53.300781 C 27.753906 49.472656 25.71875 45.613281 22.101562 44.117188 C 22.9375 42.105469 24.90625 40.796875 27.085938 40.789062 L 37.914062 40.789062 C 43.023438 40.789062 47.433594 37.222656 48.507812 32.226562 C 52.242188 30.957031 54.527344 27.1875 53.917969 23.285156 C 53.3125 19.382812 49.992188 16.484375 46.039062 16.414062 Z M 18.960938 10.996094 C 20.453125 10.996094 21.664062 12.210938 21.664062 13.703125 C 21.664062 15.203125 20.453125 16.414062 18.960938 16.414062 C 17.460938 16.414062 16.25 15.203125 16.25 13.703125 C 16.25 12.210938 17.460938 10.996094 18.960938 10.996094 Z M 18.960938 54.328125 C 17.460938 54.328125 16.25 53.117188 16.25 51.621094 C 16.25 50.125 17.460938 48.914062 18.960938 48.914062 C 20.453125 48.914062 21.664062 50.125 21.664062 51.621094 C 21.664062 53.117188 20.453125 54.328125 18.960938 54.328125 Z M 46.039062 27.246094 C 44.546875 27.246094 43.335938 26.03125 43.335938 24.539062 C 43.335938 23.039062 44.546875 21.828125 46.039062 21.828125 C 47.539062 21.828125 48.75 23.039062 48.75 24.539062 C 48.75 26.03125 47.539062 27.246094 46.039062 27.246094 Z M 46.039062 27.246094 "/>
</g>
</svg>
