<?xml version="1.0" encoding="UTF-8"?>
<svg xmlns="http://www.w3.org/2000/svg" xmlns:xlink="http://www.w3.org/1999/xlink" width="56px" height="56px" viewBox="0 0 56 56" version="1.1">
<g id="surface1">
<path style=" stroke:none;fill-rule:nonzero;fill:rgb(0%,0%,0%);fill-opacity:1;" d="M 52.5 26.25 L 52.5 29.75 L 10.5 29.75 L 10.5 10.5 L 28 10.5 L 28 7 L 8.75 7 C 7.785156 7 7 7.785156 7 8.75 L 7 29.75 L 3.5 29.75 L 3.5 5.25 C 3.5 4.285156 4.285156 3.5 5.25 3.5 L 31.5 3.5 L 31.5 0 L 5.25 0 C 2.351562 0 0 2.351562 0 5.25 L 0 40.25 C 0 41.214844 0.785156 42 1.75 42 L 17.238281 42 L 15.996094 50.75 L 14 50.75 C 13.035156 50.75 12.25 51.535156 12.25 52.5 L 8.75 52.5 L 8.75 56 L 47.25 56 L 47.25 52.5 L 43.75 52.5 C 43.75 51.535156 42.964844 50.75 42 50.75 L 40.023438 50.75 L 38.78125 42 L 54.25 42 C 55.214844 42 56 41.214844 56 40.25 L 56 26.25 Z M 19.511719 50.75 L 20.753906 42 L 35.226562 42 L 36.46875 50.75 Z M 52.5 38.5 L 3.5 38.5 L 3.5 33.25 L 52.5 33.25 Z M 52.5 38.5 "/>
<path style=" stroke:none;fill-rule:nonzero;fill:rgb(0%,0%,0%);fill-opacity:1;" d="M 37.75 15.75 L 35.523438 17.972656 L 37.992188 20.4375 L 40.25 18.25 C 40.796875 18.574219 41.386719 18.824219 42 18.988281 L 42 22.75 L 45.5 22.75 L 45.5 19.003906 C 46.113281 18.839844 46.703125 18.59375 47.25 18.269531 L 49.472656 20.492188 L 51.9375 18.023438 L 49.75 15.75 C 50.074219 15.203125 50.324219 14.613281 50.488281 14 L 54.25 14 L 54.25 10.5 L 50.503906 10.5 C 50.339844 9.886719 50.09375 9.296875 49.769531 8.75 L 51.992188 6.527344 L 49.507812 4.007812 L 47.25 6.25 C 46.703125 5.925781 46.113281 5.675781 45.5 5.511719 L 45.5 1.75 L 42 1.75 L 42 5.496094 C 41.386719 5.660156 40.796875 5.90625 40.25 6.230469 L 37.992188 4.007812 L 35.507812 6.492188 L 37.75 8.75 C 37.425781 9.296875 37.175781 9.886719 37.011719 10.5 L 33.25 10.5 L 33.25 14 L 36.996094 14 C 37.164062 14.617188 37.417969 15.203125 37.75 15.75 Z M 43.75 8.75 C 45.683594 8.75 47.25 10.316406 47.25 12.25 C 47.25 14.183594 45.683594 15.75 43.75 15.75 C 41.816406 15.75 40.25 14.183594 40.25 12.25 C 40.25 10.316406 41.816406 8.75 43.75 8.75 Z M 43.75 8.75 "/>
</g>
</svg>
