<?xml version="1.0" encoding="UTF-8"?>
<svg xmlns="http://www.w3.org/2000/svg" xmlns:xlink="http://www.w3.org/1999/xlink" width="65px" height="65px" viewBox="0 0 65 65" version="1.1">
<g id="surface1">
<path style=" stroke:none;fill-rule:nonzero;fill:rgb(84.705882%,83.921569%,84.313725%);fill-opacity:1;" d="M 48.972656 2.390625 L 48.972656 9.582031 L 41.699219 9.582031 L 41.699219 2.390625 C 41.699219 1.691406 42.269531 1.121094 42.96875 1.121094 L 47.703125 1.121094 C 48.402344 1.121094 48.972656 1.691406 48.972656 2.390625 Z M 48.972656 2.390625 "/>
<path style=" stroke:none;fill-rule:nonzero;fill:rgb(84.705882%,83.921569%,84.313725%);fill-opacity:1;" d="M 45.902344 34.085938 L 44.765625 34.085938 C 44.066406 34.085938 43.496094 33.519531 43.496094 32.816406 L 43.496094 25.621094 L 47.171875 25.621094 L 47.171875 32.816406 C 47.171875 33.519531 46.601562 34.085938 45.902344 34.085938 Z M 45.902344 34.085938 "/>
<path style=" stroke:none;fill-rule:nonzero;fill:rgb(84.313725%,21.568627%,20.784314%);fill-opacity:1;" d="M 51.519531 6.621094 L 51.519531 23.664062 C 51.519531 26.570312 49.523438 29.003906 46.828125 29.671875 C 46.347656 29.789062 45.851562 29.851562 45.332031 29.851562 C 41.917969 29.851562 39.148438 27.085938 39.148438 23.664062 L 39.148438 6.621094 C 39.148438 5.917969 39.714844 5.351562 40.417969 5.351562 L 50.25 5.351562 C 50.957031 5.351562 51.519531 5.917969 51.519531 6.621094 Z M 51.519531 6.621094 "/>
<path style=" stroke:none;fill-rule:nonzero;fill:rgb(100%,100%,100%);fill-opacity:1;" d="M 48.972656 2.390625 L 48.972656 9.582031 L 44.683594 9.582031 L 44.683594 2.390625 C 44.683594 1.691406 45.25 1.121094 45.953125 1.121094 L 47.703125 1.121094 C 48.402344 1.121094 48.972656 1.691406 48.972656 2.390625 Z M 48.972656 2.390625 "/>
<path style=" stroke:none;fill-rule:nonzero;fill:rgb(97.254902%,32.156863%,32.156863%);fill-opacity:1;" d="M 51.519531 6.621094 L 51.519531 23.664062 C 51.519531 26.570312 49.523438 29.003906 46.828125 29.671875 C 44.128906 29.007812 42.128906 26.570312 42.128906 23.664062 L 42.128906 6.621094 C 42.128906 5.917969 42.699219 5.351562 43.398438 5.351562 L 50.25 5.351562 C 50.957031 5.351562 51.519531 5.917969 51.519531 6.621094 Z M 51.519531 6.621094 "/>
<path style=" stroke:none;fill-rule:nonzero;fill:rgb(84.705882%,83.921569%,84.313725%);fill-opacity:1;" d="M 23.300781 22.386719 L 23.300781 29.582031 L 16.027344 29.582031 L 16.027344 22.386719 C 16.027344 21.6875 16.597656 21.117188 17.296875 21.117188 L 22.03125 21.117188 C 22.730469 21.117188 23.300781 21.6875 23.300781 22.386719 Z M 23.300781 22.386719 "/>
<path style=" stroke:none;fill-rule:nonzero;fill:rgb(84.705882%,83.921569%,84.313725%);fill-opacity:1;" d="M 20.234375 54.082031 L 19.097656 54.082031 C 18.398438 54.082031 17.828125 53.511719 17.828125 52.8125 L 17.828125 45.621094 L 21.503906 45.621094 L 21.503906 52.8125 C 21.503906 53.511719 20.933594 54.082031 20.234375 54.082031 Z M 20.234375 54.082031 "/>
<path style=" stroke:none;fill-rule:nonzero;fill:rgb(84.313725%,21.568627%,20.784314%);fill-opacity:1;" d="M 25.851562 26.617188 L 25.851562 43.660156 C 25.851562 46.5625 23.851562 48.996094 21.15625 49.667969 C 20.683594 49.785156 20.183594 49.847656 19.667969 49.847656 C 16.246094 49.847656 13.480469 47.078125 13.480469 43.660156 L 13.480469 26.617188 C 13.480469 25.917969 14.042969 25.347656 14.75 25.347656 L 24.582031 25.347656 C 25.285156 25.347656 25.851562 25.917969 25.851562 26.617188 Z M 25.851562 26.617188 "/>
<path style=" stroke:none;fill-rule:nonzero;fill:rgb(100%,100%,100%);fill-opacity:1;" d="M 23.300781 22.386719 L 23.300781 29.582031 L 19.015625 29.582031 L 19.015625 22.386719 C 19.015625 21.6875 19.578125 21.117188 20.285156 21.117188 L 22.03125 21.117188 C 22.730469 21.117188 23.300781 21.6875 23.300781 22.386719 Z M 23.300781 22.386719 "/>
<path style=" stroke:none;fill-rule:nonzero;fill:rgb(97.254902%,32.156863%,32.156863%);fill-opacity:1;" d="M 25.851562 26.617188 L 25.851562 43.660156 C 25.851562 46.5625 23.851562 48.996094 21.15625 49.667969 C 18.457031 49 16.460938 46.566406 16.460938 43.660156 L 16.460938 26.617188 C 16.460938 25.917969 17.03125 25.347656 17.730469 25.347656 L 24.582031 25.347656 C 25.285156 25.347656 25.851562 25.917969 25.851562 26.617188 Z M 25.851562 26.617188 "/>
<path style=" stroke:none;fill-rule:nonzero;fill:rgb(28.627451%,7.45098%,32.156863%);fill-opacity:1;" d="M 50.25 4.84375 L 49.480469 4.84375 L 49.480469 2.390625 C 49.480469 1.410156 48.679688 0.613281 47.703125 0.613281 L 42.96875 0.613281 C 41.988281 0.613281 41.191406 1.410156 41.191406 2.390625 L 41.191406 4.84375 L 40.417969 4.84375 C 39.433594 4.84375 38.640625 5.640625 38.640625 6.621094 L 38.640625 23.667969 C 38.640625 26.535156 40.449219 28.984375 42.988281 29.9375 L 42.988281 32.816406 C 42.988281 33.738281 43.707031 34.59375 44.824219 34.59375 L 44.824219 62.609375 C 44.824219 63.027344 44.484375 63.371094 44.0625 63.371094 L 20.9375 63.371094 C 20.515625 63.371094 20.175781 63.027344 20.175781 62.609375 L 20.175781 54.589844 C 21.285156 54.589844 22.011719 53.742188 22.011719 52.8125 L 22.011719 49.933594 C 24.550781 48.980469 26.359375 46.527344 26.359375 43.660156 L 26.359375 26.617188 C 26.359375 25.636719 25.566406 24.839844 24.582031 24.839844 L 23.808594 24.839844 L 23.808594 22.386719 C 23.808594 21.40625 23.011719 20.609375 22.03125 20.609375 L 17.296875 20.609375 C 16.320312 20.609375 15.519531 21.40625 15.519531 22.386719 L 15.519531 24.839844 L 14.75 24.839844 C 13.765625 24.839844 12.972656 25.636719 12.972656 26.617188 L 12.972656 43.660156 C 12.972656 46.527344 14.78125 48.980469 17.320312 49.933594 L 17.320312 52.8125 C 17.320312 53.730469 18.035156 54.589844 19.160156 54.589844 L 19.160156 62.609375 C 19.160156 63.589844 19.953125 64.386719 20.9375 64.386719 L 44.0625 64.386719 C 45.046875 64.386719 45.839844 63.589844 45.839844 62.609375 L 45.839844 34.59375 C 46.953125 34.59375 47.679688 33.746094 47.679688 32.816406 L 47.679688 29.9375 C 50.21875 28.984375 52.027344 26.535156 52.027344 23.667969 L 52.027344 6.621094 C 52.027344 5.640625 51.234375 4.84375 50.25 4.84375 Z M 16.535156 22.386719 C 16.535156 21.964844 16.882812 21.625 17.296875 21.625 L 22.03125 21.625 C 22.453125 21.625 22.792969 21.964844 22.792969 22.386719 L 22.792969 24.839844 L 16.535156 24.839844 Z M 13.988281 43.660156 L 13.988281 26.617188 C 13.988281 26.195312 14.324219 25.855469 14.75 25.855469 L 24.582031 25.855469 C 25.007812 25.855469 25.34375 26.195312 25.34375 26.617188 L 25.34375 43.660156 C 25.34375 45.960938 23.976562 47.941406 22.011719 48.832031 C 18.28125 50.535156 13.988281 47.800781 13.988281 43.660156 Z M 18.335938 50.222656 C 19.203125 50.402344 20.125 50.402344 20.996094 50.222656 L 20.996094 52.8125 C 20.996094 53.230469 20.652344 53.574219 20.234375 53.574219 C 18.015625 53.574219 18.335938 53.785156 18.335938 50.222656 Z M 42.207031 2.390625 C 42.207031 1.96875 42.546875 1.628906 42.96875 1.628906 L 47.703125 1.628906 C 48.117188 1.628906 48.464844 1.96875 48.464844 2.390625 L 48.464844 4.84375 L 42.207031 4.84375 Z M 44.765625 33.578125 C 44.347656 33.578125 44.003906 33.238281 44.003906 32.816406 L 44.003906 30.226562 C 44.871094 30.40625 45.792969 30.40625 46.664062 30.226562 C 46.664062 33.839844 46.945312 33.578125 44.765625 33.578125 Z M 51.011719 23.667969 C 51.011719 25.964844 49.644531 27.949219 47.679688 28.835938 C 43.914062 30.554688 39.65625 27.765625 39.65625 23.667969 L 39.65625 6.621094 C 39.65625 6.203125 39.992188 5.859375 40.417969 5.859375 L 50.25 5.859375 C 50.675781 5.859375 51.011719 6.203125 51.011719 6.621094 Z M 51.011719 23.667969 "/>
<path style=" stroke:none;fill-rule:nonzero;fill:rgb(28.627451%,7.45098%,32.156863%);fill-opacity:1;" d="M 44.1875 2.761719 L 43.417969 2.761719 C 42.746094 2.761719 42.746094 3.777344 43.417969 3.777344 L 44.1875 3.777344 C 44.859375 3.777344 44.859375 2.761719 44.1875 2.761719 Z M 44.1875 2.761719 "/>
<path style=" stroke:none;fill-rule:nonzero;fill:rgb(28.627451%,7.45098%,32.156863%);fill-opacity:1;" d="M 47.253906 2.761719 L 46.484375 2.761719 C 45.8125 2.761719 45.8125 3.777344 46.484375 3.777344 L 47.253906 3.777344 C 47.921875 3.777344 47.921875 2.761719 47.253906 2.761719 Z M 47.253906 2.761719 "/>
<path style=" stroke:none;fill-rule:nonzero;fill:rgb(28.627451%,7.45098%,32.156863%);fill-opacity:1;" d="M 18.515625 22.757812 L 17.746094 22.757812 C 17.078125 22.757812 17.078125 23.773438 17.746094 23.773438 L 18.515625 23.773438 C 19.1875 23.773438 19.1875 22.757812 18.515625 22.757812 Z M 18.515625 22.757812 "/>
<path style=" stroke:none;fill-rule:nonzero;fill:rgb(28.627451%,7.45098%,32.156863%);fill-opacity:1;" d="M 21.582031 22.757812 L 20.8125 22.757812 C 20.140625 22.757812 20.140625 23.773438 20.8125 23.773438 L 21.582031 23.773438 C 22.253906 23.773438 22.253906 22.757812 21.582031 22.757812 Z M 21.582031 22.757812 "/>
</g>
</svg>
