<?xml version="1.0" encoding="UTF-8"?>
<svg xmlns="http://www.w3.org/2000/svg" xmlns:xlink="http://www.w3.org/1999/xlink" width="57px" height="57px" viewBox="0 0 57 57" version="1.1">
<g id="surface1">
<path style=" stroke:none;fill-rule:nonzero;fill:rgb(14.901961%,30.196078%,89.411765%);fill-opacity:1;" d="M 26.914062 56.820312 L 4.980469 51.199219 L 0.09375 0.601562 L 53.800781 0.601562 L 48.910156 51.191406 Z M 26.914062 56.820312 "/>
<path style=" stroke:none;fill-rule:nonzero;fill:rgb(16.078431%,39.607843%,94.509804%);fill-opacity:1;" d="M 44.71875 47.976562 L 48.902344 4.738281 L 26.949219 4.738281 L 26.949219 52.519531 Z M 44.71875 47.976562 "/>
<path style=" stroke:none;fill-rule:nonzero;fill:rgb(92.156863%,92.156863%,92.156863%);fill-opacity:1;" d="M 11.296875 23.503906 L 11.902344 29.710938 L 26.949219 29.710938 L 26.949219 23.503906 Z M 11.296875 23.503906 "/>
<path style=" stroke:none;fill-rule:nonzero;fill:rgb(92.156863%,92.156863%,92.156863%);fill-opacity:1;" d="M 10.085938 10.941406 L 10.699219 17.148438 L 26.949219 17.148438 L 26.949219 10.941406 Z M 10.085938 10.941406 "/>
<path style=" stroke:none;fill-rule:nonzero;fill:rgb(92.156863%,92.156863%,92.156863%);fill-opacity:1;" d="M 26.949219 39.621094 L 26.917969 39.628906 L 19.429688 37.761719 L 18.949219 32.8125 L 12.203125 32.8125 L 13.144531 42.558594 L 26.917969 46.085938 L 26.949219 46.078125 Z M 26.949219 39.621094 "/>
<path style=" stroke:none;fill-rule:nonzero;fill:rgb(100%,100%,100%);fill-opacity:1;" d="M 42.550781 23.503906 L 43.765625 10.941406 L 26.921875 10.941406 L 26.921875 17.148438 L 36.402344 17.148438 L 35.785156 23.503906 L 26.921875 23.503906 L 26.921875 29.710938 L 35.203125 29.710938 L 34.421875 37.757812 L 26.921875 39.628906 L 26.921875 46.085938 L 40.707031 42.558594 L 40.808594 41.511719 L 42.390625 25.171875 Z M 42.550781 23.503906 "/>
</g>
</svg>
