<?xml version="1.0" encoding="UTF-8"?>
<svg xmlns="http://www.w3.org/2000/svg" xmlns:xlink="http://www.w3.org/1999/xlink" width="27px" height="27px" viewBox="0 0 27 27" version="1.1">
<defs>
<linearGradient id="linear0" gradientUnits="userSpaceOnUse" x1="0" y1="0.5" x2="1" y2="0.5" gradientTransform="matrix(19.125,0,0,24.863063,3.9375,1.06875)">
<stop offset="0" style="stop-color:rgb(94.901961%,21.568627%,93.72549%);stop-opacity:1;"/>
<stop offset="0.986957" style="stop-color:rgb(98.823529%,32.156863%,32.156863%);stop-opacity:1;"/>
</linearGradient>
</defs>
<g id="surface1">
<path style=" stroke:none;fill-rule:nonzero;fill:url(#linear0);" d="M 20.839844 11.710938 C 20.863281 12.378906 20.652344 12.707031 20.460938 13.28125 L 20.117188 13.460938 C 19.835938 14.03125 20.144531 13.824219 19.945312 14.277344 C 19.503906 14.683594 18.613281 15.550781 18.328125 15.628906 C 18.121094 15.625 18.46875 15.375 18.515625 15.273438 C 17.925781 15.695312 18.042969 15.90625 17.144531 16.164062 L 17.117188 16.101562 C 14.902344 17.191406 11.828125 15.035156 11.867188 12.089844 C 11.84375 12.277344 11.800781 12.230469 11.75 12.304688 C 11.636719 10.792969 12.421875 9.273438 13.742188 8.652344 C 15.035156 7.984375 16.550781 8.257812 17.476562 9.160156 C 16.96875 8.460938 15.957031 7.726562 14.757812 7.792969 C 13.582031 7.8125 12.480469 8.59375 12.113281 9.441406 C 11.511719 9.835938 11.441406 10.96875 11.179688 11.175781 C 10.828125 13.882812 11.84375 15.054688 13.566406 16.433594 C 13.835938 16.621094 13.640625 16.652344 13.679688 16.796875 C 13.105469 16.515625 12.582031 16.09375 12.152344 15.578125 C 12.378906 15.929688 12.628906 16.265625 12.945312 16.535156 C 12.40625 16.34375 11.6875 15.167969 11.476562 15.121094 C 12.40625 16.859375 15.246094 18.167969 16.734375 17.519531 C 16.046875 17.546875 15.171875 17.535156 14.398438 17.234375 C 14.070312 17.0625 13.632812 16.699219 13.710938 16.632812 C 15.738281 17.421875 17.835938 17.230469 19.59375 15.761719 C 20.039062 15.398438 20.527344 14.777344 20.667969 14.769531 C 20.457031 15.105469 20.707031 14.929688 20.542969 15.226562 C 20.988281 14.476562 20.347656 14.917969 21.003906 13.929688 L 21.242188 14.277344 C 21.152344 13.652344 21.984375 12.898438 21.898438 11.914062 C 22.089844 11.613281 22.113281 12.238281 21.910156 12.929688 C 22.191406 12.164062 21.984375 12.039062 22.054688 11.40625 C 22.132812 11.617188 22.238281 11.84375 22.289062 12.070312 C 22.105469 11.328125 22.476562 10.820312 22.566406 10.386719 C 22.476562 10.34375 22.285156 10.714844 22.242188 9.839844 C 22.25 9.457031 22.34375 9.636719 22.378906 9.542969 C 22.308594 9.5 22.121094 9.210938 22.007812 8.648438 C 22.089844 8.515625 22.226562 8.992188 22.339844 9.011719 C 22.269531 8.566406 22.144531 8.226562 22.136719 7.882812 C 21.808594 7.164062 22.019531 7.980469 21.753906 7.574219 C 21.402344 6.433594 22.046875 7.308594 22.089844 6.789062 C 22.621094 7.59375 22.921875 8.839844 23.0625 9.359375 C 22.957031 8.726562 22.785156 8.117188 22.574219 7.527344 C 22.738281 7.597656 22.3125 6.234375 22.785156 7.136719 C 22.28125 5.210938 20.636719 3.40625 19.125 2.5625 C 19.308594 2.738281 19.542969 2.960938 19.457031 2.996094 C 18.703125 2.527344 18.835938 2.492188 18.730469 2.292969 C 18.117188 2.03125 18.074219 2.316406 17.671875 2.292969 C 16.515625 1.652344 16.292969 1.722656 15.226562 1.320312 L 15.273438 1.554688 C 14.507812 1.289062 14.382812 1.65625 13.554688 1.558594 C 13.503906 1.515625 13.820312 1.410156 14.078125 1.367188 C 13.339844 1.472656 13.375 1.214844 12.648438 1.398438 C 12.828125 1.265625 13.015625 1.179688 13.207031 1.070312 C 12.601562 1.105469 11.765625 1.433594 12.023438 1.136719 C 11.039062 1.59375 9.289062 2.238281 8.308594 3.203125 L 8.277344 2.984375 C 7.828125 3.550781 6.316406 4.671875 6.195312 5.402344 L 6.074219 5.429688 C 5.839844 5.84375 5.6875 6.3125 5.503906 6.738281 C 5.195312 7.285156 5.054688 6.949219 5.097656 7.035156 C 4.496094 8.3125 4.195312 9.382812 3.9375 10.261719 C 4.121094 10.550781 3.941406 11.992188 4.011719 13.148438 C 3.710938 18.851562 7.84375 24.390625 12.363281 25.667969 C 13.027344 25.917969 14.011719 25.90625 14.851562 25.929688 C 13.863281 25.636719 13.734375 25.777344 12.769531 25.425781 C 12.078125 25.082031 11.925781 24.691406 11.433594 24.246094 L 11.625 24.605469 C 10.660156 24.246094 11.066406 24.164062 10.28125 23.902344 L 10.488281 23.621094 C 10.175781 23.59375 9.660156 23.070312 9.519531 22.777344 L 9.175781 22.792969 C 8.765625 22.261719 8.546875 21.878906 8.5625 21.585938 L 8.453125 21.789062 C 8.324219 21.566406 6.9375 19.800781 7.65625 20.214844 C 7.523438 20.085938 7.347656 20.007812 7.152344 19.640625 L 7.300781 19.464844 C 6.953125 19 6.664062 18.402344 6.683594 18.203125 C 6.871094 18.464844 7 18.511719 7.125 18.558594 C 6.25 16.292969 6.199219 18.433594 5.539062 16.25 L 5.679688 16.238281 C 5.570312 16.070312 5.503906 15.886719 5.417969 15.707031 L 5.480469 15.070312 C 4.851562 14.3125 5.304688 11.839844 5.394531 10.480469 C 5.460938 9.929688 5.921875 9.34375 6.273438 8.421875 L 6.058594 8.382812 C 6.46875 7.636719 8.398438 5.382812 9.292969 5.5 C 9.726562 4.933594 9.207031 5.496094 9.121094 5.355469 C 10.074219 4.328125 10.375 4.628906 11.015625 4.441406 C 11.707031 4.015625 10.421875 4.613281 10.75 4.28125 C 11.945312 3.960938 11.597656 3.554688 13.160156 3.390625 C 13.324219 3.488281 12.777344 3.542969 12.640625 3.671875 C 13.636719 3.160156 15.796875 3.277344 17.199219 3.953125 C 18.824219 4.746094 20.652344 7.09375 20.726562 9.300781 L 20.808594 9.324219 C 20.765625 10.203125 20.9375 11.21875 20.640625 12.152344 L 20.839844 11.710938 "/>
</g>
</svg>
