<?xml version="1.0" encoding="UTF-8"?>
<svg xmlns="http://www.w3.org/2000/svg" xmlns:xlink="http://www.w3.org/1999/xlink" width="65px" height="65px" viewBox="0 0 65 65" version="1.1">
<g id="surface1">
<path style=" stroke:none;fill-rule:nonzero;fill:rgb(0%,84.705882%,100%);fill-opacity:1;" d="M 37.578125 32.445312 C 37.578125 35.25 35.304688 37.523438 32.5 37.523438 C 29.695312 37.523438 27.421875 35.25 27.421875 32.445312 C 27.421875 29.644531 29.695312 27.367188 32.5 27.367188 C 35.304688 27.367188 37.578125 29.644531 37.578125 32.445312 Z M 37.578125 32.445312 "/>
<path style=" stroke:none;fill-rule:nonzero;fill:rgb(0%,84.705882%,100%);fill-opacity:1;" d="M 32.5 44.089844 C 26.394531 44.238281 20.308594 43.414062 14.460938 41.652344 C 11.761719 40.796875 9.242188 39.449219 7.035156 37.675781 C 5.328125 36.449219 4.242188 34.539062 4.0625 32.445312 C 4.0625 29.089844 7.75 25.800781 13.929688 23.644531 C 19.933594 21.738281 26.203125 20.8125 32.5 20.90625 C 38.714844 20.820312 44.898438 21.730469 50.824219 23.597656 C 53.425781 24.425781 55.859375 25.710938 58.011719 27.386719 C 59.691406 28.554688 60.761719 30.410156 60.9375 32.445312 C 60.9375 35.9375 56.8125 39.472656 50.171875 41.671875 C 44.441406 43.375 38.480469 44.191406 32.5 44.089844 Z M 32.5 23.335938 C 26.476562 23.257812 20.476562 24.136719 14.730469 25.941406 C 9.042969 27.925781 6.492188 30.640625 6.492188 32.441406 C 6.492188 34.324219 9.230469 37.289062 15.25 39.347656 C 20.839844 41.023438 26.664062 41.804688 32.5 41.660156 C 38.222656 41.761719 43.921875 40.988281 49.410156 39.367188 C 55.65625 37.296875 58.5 34.328125 58.5 32.445312 C 58.292969 31.140625 57.546875 29.984375 56.449219 29.253906 C 54.523438 27.761719 52.347656 26.625 50.027344 25.890625 C 44.359375 24.113281 38.441406 23.25 32.5 23.335938 Z M 32.5 23.335938 "/>
<path style=" stroke:none;fill-rule:nonzero;fill:rgb(0%,84.705882%,100%);fill-opacity:1;" d="M 20.960938 57.773438 C 20.015625 57.796875 19.078125 57.566406 18.25 57.109375 C 15.339844 55.429688 14.332031 50.59375 15.554688 44.164062 C 16.898438 38.011719 19.230469 32.117188 22.460938 26.707031 C 25.488281 21.285156 29.363281 16.378906 33.941406 12.175781 C 35.960938 10.339844 38.285156 8.871094 40.816406 7.84375 C 42.667969 6.976562 44.808594 6.976562 46.660156 7.84375 C 49.6875 9.585938 50.6875 14.925781 49.277344 21.777344 C 47.886719 27.59375 45.617188 33.167969 42.539062 38.296875 C 39.617188 43.660156 35.863281 48.523438 31.417969 52.703125 C 29.328125 54.617188 26.902344 56.125 24.261719 57.152344 C 23.203125 57.542969 22.089844 57.753906 20.960938 57.773438 Z M 24.5625 27.914062 C 21.484375 33.09375 19.25 38.730469 17.941406 44.609375 C 16.820312 50.53125 17.898438 54.09375 19.464844 55 C 21.089844 55.9375 25.035156 55.046875 29.824219 50.863281 C 34.070312 46.855469 37.652344 42.199219 40.441406 37.070312 C 43.390625 32.164062 45.570312 26.839844 46.902344 21.273438 C 48.230469 14.824219 47.085938 10.878906 45.457031 9.9375 C 44.222656 9.464844 42.84375 9.53125 41.660156 10.121094 C 39.410156 11.046875 37.339844 12.367188 35.546875 14.015625 C 31.171875 18.039062 27.46875 22.734375 24.578125 27.925781 Z M 24.5625 27.914062 "/>
<path style=" stroke:none;fill-rule:nonzero;fill:rgb(0%,84.705882%,100%);fill-opacity:1;" d="M 44.03125 57.800781 C 41.277344 57.800781 37.785156 56.136719 34.144531 53.003906 C 29.484375 48.765625 25.542969 43.800781 22.46875 38.304688 C 19.28125 32.972656 16.96875 27.164062 15.617188 21.097656 C 15.03125 18.429688 14.921875 15.679688 15.296875 12.972656 C 15.46875 10.941406 16.539062 9.089844 18.207031 7.921875 C 21.230469 6.171875 26.351562 7.96875 31.582031 12.613281 C 35.933594 16.722656 39.625 21.472656 42.53125 26.699219 C 45.71875 31.90625 48.054688 37.589844 49.457031 43.53125 C 50.070312 46.296875 50.164062 49.152344 49.738281 51.953125 C 49.53125 54.042969 48.421875 55.9375 46.703125 57.144531 C 45.886719 57.59375 44.964844 57.824219 44.03125 57.800781 Z M 24.570312 37.082031 C 27.519531 42.335938 31.285156 47.085938 35.726562 51.15625 C 40.296875 55.085938 43.917969 55.933594 45.476562 55.015625 C 47.101562 54.070312 48.300781 50.214844 47.066406 43.980469 C 45.714844 38.304688 43.46875 32.882812 40.421875 27.910156 C 37.648438 22.90625 34.121094 18.359375 29.972656 14.421875 C 25.046875 10.050781 21.054688 9.074219 19.425781 10.015625 C 18.402344 10.847656 17.773438 12.074219 17.691406 13.390625 C 17.367188 15.804688 17.472656 18.257812 18 20.632812 C 19.300781 26.433594 21.519531 31.988281 24.574219 37.085938 Z M 24.570312 37.082031 "/>
</g>
</svg>
