<?xml version="1.0" encoding="UTF-8"?>
<svg xmlns="http://www.w3.org/2000/svg" xmlns:xlink="http://www.w3.org/1999/xlink" width="59px" height="59px" viewBox="0 0 59 59" version="1.1">
<g id="surface1">
<path style=" stroke:none;fill-rule:nonzero;fill:rgb(96.862745%,87.45098%,11.764706%);fill-opacity:1;" d="M 8.851562 0 L 50.148438 0 C 55.035156 0 59 3.964844 59 8.851562 L 59 50.148438 C 59 55.035156 55.035156 59 50.148438 59 L 8.851562 59 C 3.964844 59 0 55.035156 0 50.148438 L 0 8.851562 C 0 3.964844 3.964844 0 8.851562 0 Z M 8.851562 0 "/>
<path style=" stroke:none;fill-rule:nonzero;fill:rgb(0%,0%,0%);fill-opacity:1;" d="M 37.335938 42.636719 C 38.488281 44.59375 40.101562 45.976562 42.75 45.976562 C 45.054688 45.976562 46.554688 44.828125 46.554688 43.210938 C 46.554688 41.367188 45.054688 40.679688 42.523438 39.523438 L 41.140625 38.949219 C 37.105469 37.21875 34.453125 35.148438 34.453125 30.652344 C 34.453125 26.503906 37.566406 23.277344 42.523438 23.277344 C 46.09375 23.277344 48.628906 24.546875 50.359375 27.773438 L 46.09375 30.539062 C 45.171875 28.808594 44.132812 28.117188 42.523438 28.117188 C 40.90625 28.117188 39.871094 29.15625 39.871094 30.539062 C 39.871094 32.148438 40.90625 32.84375 43.328125 33.878906 L 44.710938 34.453125 C 49.4375 36.53125 52.085938 38.488281 52.085938 43.210938 C 52.085938 48.167969 48.167969 50.933594 42.867188 50.933594 C 37.679688 50.933594 34.339844 48.515625 32.726562 45.289062 Z M 17.746094 43.097656 C 18.667969 44.59375 19.359375 45.976562 21.320312 45.976562 C 23.164062 45.976562 24.3125 45.289062 24.3125 42.523438 L 24.3125 23.390625 L 29.84375 23.390625 L 29.84375 42.289062 C 29.84375 48.054688 26.503906 50.585938 21.546875 50.585938 C 17.054688 50.585938 14.519531 48.28125 13.25 45.515625 Z M 17.746094 43.097656 "/>
</g>
</svg>
