<?xml version="1.0" encoding="UTF-8"?>
<svg xmlns="http://www.w3.org/2000/svg" xmlns:xlink="http://www.w3.org/1999/xlink" width="65px" height="65px" viewBox="0 0 65 65" version="1.1">
<g id="surface1">
<path style=" stroke:none;fill-rule:evenodd;fill:rgb(0%,0%,0%);fill-opacity:1;" d="M 33.601562 3.550781 C 32.921875 3.148438 32.078125 3.148438 31.398438 3.550781 L 7.5625 17.636719 C 6.90625 18.023438 6.5 18.734375 6.5 19.5 C 6.5 20.265625 6.90625 20.976562 7.5625 21.363281 L 31.398438 35.449219 C 32.078125 35.851562 32.921875 35.851562 33.601562 35.449219 L 57.433594 21.363281 C 58.09375 20.976562 58.5 20.265625 58.5 19.5 C 58.5 18.734375 58.09375 18.023438 57.433594 17.636719 Z M 32.5 31.066406 L 12.925781 19.5 L 32.5 7.933594 L 52.074219 19.5 Z M 6.800781 32.480469 C 7.410156 31.453125 8.738281 31.109375 9.769531 31.714844 L 32.5 45.148438 L 55.230469 31.714844 C 56.261719 31.109375 57.589844 31.453125 58.199219 32.480469 C 58.808594 33.511719 58.46875 34.839844 57.433594 35.449219 L 33.601562 49.535156 C 32.921875 49.933594 32.078125 49.933594 31.398438 49.535156 L 7.5625 35.449219 C 6.53125 34.839844 6.191406 33.511719 6.800781 32.480469 Z M 6.800781 45.480469 C 7.410156 44.453125 8.738281 44.109375 9.769531 44.714844 L 32.5 58.148438 L 55.230469 44.714844 C 56.261719 44.109375 57.589844 44.453125 58.199219 45.480469 C 58.808594 46.511719 58.46875 47.839844 57.433594 48.449219 L 33.601562 62.535156 C 32.921875 62.933594 32.078125 62.933594 31.398438 62.535156 L 7.5625 48.449219 C 6.53125 47.839844 6.191406 46.511719 6.800781 45.480469 Z M 6.800781 45.480469 "/>
</g>
</svg>
