<?xml version="1.0" encoding="UTF-8"?>
<svg xmlns="http://www.w3.org/2000/svg" xmlns:xlink="http://www.w3.org/1999/xlink" width="26px" height="26px" viewBox="0 0 26 26" version="1.1">
<g id="surface1">
<path style="fill:none;stroke-width:4;stroke-linecap:round;stroke-linejoin:round;stroke:rgb(100%,90.196078%,0%);stroke-opacity:1;stroke-miterlimit:4;" d="M 78.566106 52.900841 L 100.276442 52.900841 " transform="matrix(0.160494,0,0,0.230088,0,0)"/>
<path style="fill:none;stroke-width:4;stroke-linecap:round;stroke-linejoin:round;stroke:rgb(100%,90.196078%,0%);stroke-opacity:1;stroke-miterlimit:4;" d="M 112.689303 85.004657 L 132.793269 85.004657 " transform="matrix(0.160494,0,0,0.230088,0,0)"/>
<path style="fill:none;stroke-width:4;stroke-linecap:round;stroke-linejoin:round;stroke:rgb(100%,90.196078%,0%);stroke-opacity:1;stroke-miterlimit:4;" d="M 36.508413 75.140925 L 44.515925 75.140925 " transform="matrix(0.160494,0,0,0.230088,0,0)"/>
<path style="fill:none;stroke-width:4;stroke-linecap:round;stroke-linejoin:miter;stroke:rgb(0%,0%,0%);stroke-opacity:1;stroke-miterlimit:10;" d="M 26.626803 110.775992 L 73.016827 48.622596 C 73.86869 47.502103 75.158654 46.839994 76.570312 46.839994 L 100.373798 46.839994 C 101.785457 46.839994 103.09976 47.502103 103.927284 48.622596 L 126.367788 78.655198 " transform="matrix(0.160494,0,0,0.230088,0,0)"/>
<path style="fill:none;stroke-width:4;stroke-linecap:round;stroke-linejoin:miter;stroke:rgb(0%,0%,0%);stroke-opacity:1;stroke-miterlimit:10;" d="M 79.515325 110.775992 L 102.150541 80.454778 C 103.002404 79.317308 104.292368 78.655198 105.704026 78.655198 L 133.158353 78.655198 C 134.545673 78.655198 135.859976 79.317308 136.711839 80.454778 L 159.347055 110.775992 " transform="matrix(0.160494,0,0,0.230088,0,0)"/>
<path style="fill:none;stroke-width:4;stroke-linecap:round;stroke-linejoin:miter;stroke:rgb(0%,0%,0%);stroke-opacity:1;stroke-miterlimit:10;" d="M 2.628606 110.775992 L 32.200421 71.151292 C 33.052284 70.030799 34.366587 69.36869 35.778245 69.36869 L 57.53726 69.36869 " transform="matrix(0.160494,0,0,0.230088,0,0)"/>
<path style="fill:none;stroke-width:4;stroke-linecap:round;stroke-linejoin:round;stroke:rgb(0%,0%,0%);stroke-opacity:1;stroke-miterlimit:4;" d="M 70.388221 18.589994 L 79.661358 18.589994 " transform="matrix(0.160494,0,0,0.230088,0,0)"/>
<path style="fill:none;stroke-width:4;stroke-linecap:round;stroke-linejoin:round;stroke:rgb(0%,0%,0%);stroke-opacity:1;stroke-miterlimit:4;" d="M 40.865084 92.474609 L 54.592248 92.474609 " transform="matrix(0.160494,0,0,0.230088,0,0)"/>
<path style="fill:none;stroke-width:4;stroke-linecap:round;stroke-linejoin:round;stroke:rgb(0%,0%,0%);stroke-opacity:1;stroke-miterlimit:4;" d="M 78.566106 69.385667 L 85.648738 69.385667 " transform="matrix(0.160494,0,0,0.230088,0,0)"/>
<path style="fill:none;stroke-width:4;stroke-linecap:round;stroke-linejoin:round;stroke:rgb(0%,0%,0%);stroke-opacity:1;stroke-miterlimit:4;" d="M 117.508413 102.660907 L 135.640925 102.660907 " transform="matrix(0.160494,0,0,0.230088,0,0)"/>
<path style="fill:none;stroke-width:4;stroke-linecap:round;stroke-linejoin:round;stroke:rgb(0%,0%,0%);stroke-opacity:1;stroke-miterlimit:4;" d="M 122.960337 51.271034 L 138.853666 51.271034 " transform="matrix(0.160494,0,0,0.230088,0,0)"/>
<path style="fill:none;stroke-width:4;stroke-linecap:round;stroke-linejoin:round;stroke:rgb(0%,0%,0%);stroke-opacity:1;stroke-miterlimit:4;" d="M 43.469351 29.115835 L 66.007212 29.115835 " transform="matrix(0.160494,0,0,0.230088,0,0)"/>
<path style="fill:none;stroke-width:4;stroke-linecap:round;stroke-linejoin:round;stroke:rgb(0%,0%,0%);stroke-opacity:1;stroke-miterlimit:4;" d="M 51.014423 100.216196 L 58.121394 100.216196 " transform="matrix(0.160494,0,0,0.230088,0,0)"/>
<path style="fill:none;stroke-width:4;stroke-linecap:round;stroke-linejoin:round;stroke:rgb(0%,0%,0%);stroke-opacity:1;stroke-miterlimit:4;" d="M 108.259615 2.240986 L 128.582632 2.240986 " transform="matrix(0.160494,0,0,0.230088,0,0)"/>
<path style="fill:none;stroke-width:4;stroke-linecap:round;stroke-linejoin:round;stroke:rgb(0%,0%,0%);stroke-opacity:1;stroke-miterlimit:4;" d="M 90.44351 32.120793 L 97.550481 32.120793 " transform="matrix(0.160494,0,0,0.230088,0,0)"/>
<path style="fill:none;stroke-width:4;stroke-linecap:round;stroke-linejoin:round;stroke:rgb(0%,0%,0%);stroke-opacity:1;stroke-miterlimit:4;" d="M 112.689303 60.404748 L 142.090745 60.404748 " transform="matrix(0.160494,0,0,0.230088,0,0)"/>
<path style="fill:none;stroke-width:4;stroke-linecap:round;stroke-linejoin:round;stroke:rgb(0%,0%,0%);stroke-opacity:1;stroke-miterlimit:4;" d="M 18.814002 3.259615 L 34.707332 3.259615 " transform="matrix(0.160494,0,0,0.230088,0,0)"/>
<path style="fill:none;stroke-width:4;stroke-linecap:round;stroke-linejoin:round;stroke:rgb(0%,0%,0%);stroke-opacity:1;stroke-miterlimit:4;" d="M 30.861779 12.410306 L 37.944411 12.410306 " transform="matrix(0.160494,0,0,0.230088,0,0)"/>
<path style="fill:none;stroke-width:4;stroke-linecap:round;stroke-linejoin:round;stroke:rgb(0%,0%,0%);stroke-opacity:1;stroke-miterlimit:4;" d="M 23.681791 49.963792 L 50.649339 49.963792 " transform="matrix(0.160494,0,0,0.230088,0,0)"/>
<path style="fill:none;stroke-width:4;stroke-linecap:round;stroke-linejoin:round;stroke:rgb(0%,0%,0%);stroke-opacity:1;stroke-miterlimit:4;" d="M 15.260517 59.063552 L 22.343149 59.063552 " transform="matrix(0.160494,0,0,0.230088,0,0)"/>
</g>
</svg>
