<?xml version="1.0" encoding="UTF-8"?>
<svg xmlns="http://www.w3.org/2000/svg" xmlns:xlink="http://www.w3.org/1999/xlink" width="65px" height="65px" viewBox="0 0 65 65" version="1.1">
<defs>
<linearGradient id="linear0" gradientUnits="userSpaceOnUse" x1="12.4809" y1="2" x2="12.4809" y2="22.7407" gradientTransform="matrix(2.03125,0,0,2.03125,0,0)">
<stop offset="0" style="stop-color:rgb(19.607843%,49.411765%,74.117647%);stop-opacity:1;"/>
<stop offset="1" style="stop-color:rgb(8.235294%,39.607843%,65.490196%);stop-opacity:1;"/>
</linearGradient>
<linearGradient id="linear1" gradientUnits="userSpaceOnUse" x1="19.519" y1="9.25928" x2="19.519" y2="30" gradientTransform="matrix(2.03125,0,0,2.03125,0,0)">
<stop offset="0" style="stop-color:rgb(100%,85.490196%,29.411765%);stop-opacity:1;"/>
<stop offset="1" style="stop-color:rgb(97.647059%,77.647059%,0%);stop-opacity:1;"/>
</linearGradient>
</defs>
<g id="surface1">
<path style=" stroke:none;fill-rule:evenodd;fill:url(#linear0);" d="M 26.4375 4.0625 C 21.976562 4.0625 18.355469 7.566406 18.355469 11.886719 L 18.355469 17.300781 L 32.34375 17.300781 L 32.34375 18.808594 L 12.144531 18.808594 C 7.679688 18.808594 4.0625 22.3125 4.0625 26.632812 L 4.0625 38.367188 C 4.0625 42.6875 7.679688 46.191406 12.144531 46.191406 L 16.804688 46.191406 L 16.804688 39.574219 C 16.804688 35.25 20.421875 31.75 24.886719 31.75 L 39.804688 31.75 C 43.582031 31.75 46.644531 28.78125 46.644531 25.125 L 46.644531 11.886719 C 46.644531 7.566406 43.023438 4.0625 38.5625 4.0625 Z M 24.574219 13.691406 C 26.121094 13.691406 27.371094 12.480469 27.371094 10.984375 C 27.371094 9.488281 26.121094 8.273438 24.574219 8.273438 C 23.027344 8.273438 21.777344 9.488281 21.777344 10.984375 C 21.777344 12.480469 23.027344 13.691406 24.574219 13.691406 Z M 24.574219 13.691406 "/>
<path style=" stroke:none;fill-rule:evenodd;fill:url(#linear1);" d="M 38.5625 60.9375 C 43.023438 60.9375 46.640625 57.433594 46.640625 53.113281 L 46.640625 47.699219 L 32.65625 47.699219 L 32.65625 46.191406 L 52.855469 46.191406 C 57.320312 46.191406 60.9375 42.6875 60.9375 38.367188 L 60.9375 26.632812 C 60.9375 22.3125 57.320312 18.808594 52.855469 18.808594 L 48.195312 18.808594 L 48.195312 25.425781 C 48.195312 29.75 44.574219 33.25 40.113281 33.25 L 25.195312 33.25 C 21.417969 33.25 18.355469 36.21875 18.355469 39.875 L 18.355469 53.113281 C 18.355469 57.433594 21.976562 60.9375 26.4375 60.9375 Z M 40.425781 51.308594 C 38.878906 51.308594 37.628906 52.519531 37.628906 54.015625 C 37.628906 55.511719 38.878906 56.726562 40.425781 56.726562 C 41.972656 56.726562 43.222656 55.511719 43.222656 54.015625 C 43.222656 52.519531 41.972656 51.308594 40.425781 51.308594 Z M 40.425781 51.308594 "/>
</g>
</svg>
