<?xml version="1.0" encoding="UTF-8"?>
<svg xmlns="http://www.w3.org/2000/svg" xmlns:xlink="http://www.w3.org/1999/xlink" width="27px" height="27px" viewBox="0 0 27 27" version="1.1">
<g id="surface1">
<path style="fill:none;stroke-width:2;stroke-linecap:round;stroke-linejoin:round;stroke:rgb(0%,0%,0%);stroke-opacity:1;stroke-miterlimit:4;" d="M 16.5 19 C 17.881944 19 19 17.881944 19 16.5 C 19 15.118056 17.881944 14 16.5 14 C 15.118056 14 14 15.118056 14 16.5 C 14 17.881944 15.118056 19 16.5 19 Z M 10 5 L 12 3 M 7.5 10 C 8.881944 10 10 8.881944 10 7.5 C 10 6.118056 8.881944 5 7.5 5 C 6.118056 5 5 6.118056 5 7.5 C 5 8.881944 6.118056 10 7.5 10 Z M 8 16 L 16 8 M 5.5 21 C 6.881944 21 8 19.881944 8 18.5 C 8 17.118056 6.881944 16 5.5 16 C 4.118056 16 3 17.118056 3 18.5 C 3 19.881944 4.118056 21 5.5 21 Z M 18.5 8 C 19.881944 8 21 6.881944 21 5.5 C 21 4.118056 19.881944 3 18.5 3 C 17.118056 3 16 4.118056 16 5.5 C 16 6.881944 17.118056 8 18.5 8 Z M 12 21 L 14 19 " transform="matrix(1.125,0,0,1.125,0,0)"/>
</g>
</svg>
